Coordinates
version=1
nRows=7
nColumns=46
inDegrees=yes

Units are S.I. units (second, meters, Newtons, ...)
Angles are in degrees.

endheader
time	pelvis_tilt	pelvis_list	pelvis_rotation	pelvis_tx	pelvis_ty	pelvis_tz	bb_angle	bb_tx	bb_ty	bb_tz	hip_flexion_r	hip_adduction_r	hip_rotation_r	knee_angle_r	knee_angle_r_beta	ankle_angle_r	subtalar_angle_r	mtp_angle_r	crank_angle_r	hip_flexion_l	hip_adduction_l	hip_rotation_l	knee_angle_l	knee_angle_l_beta	ankle_angle_l	subtalar_angle_l	mtp_angle_l	crank_angle_l	lumbar_extension	lumbar_bending	lumbar_rotation	arm_flex_r	arm_add_r	arm_rot_r	elbow_flex_r	pro_sup_r	wrist_flex_r	wrist_dev_r	arm_flex_l	arm_add_l	arm_rot_l	elbow_flex_l	pro_sup_l	wrist_flex_l	wrist_dev_l
      7.50000000	    -24.93251097	      4.68969794	     -5.62627914	      0.46861159	      1.18297404	     -0.22794067	      0.00000000	      0.50000000	      0.00000000	      0.25000000	     55.07332552	     -1.92922549	      9.59417871	     59.78087747	      1.04337314	     10.64235039	     -9.17517405	      0.00000000	      0.00000000	     37.27226870	     -0.96644373	      0.34893191	     58.85200188	      1.02716120	    -30.99691037	     -6.75415267	      0.00000000	      0.00000000	    -58.64335172	     -7.66308746	      7.94706642	     36.80534913	    -46.39856641	     32.20248677	     94.82567919	     58.70892930	      0.00000000	      0.00000000	     50.38386122	    -15.59304892	     34.43373878	     70.98459633	     52.08375669	      0.00000000	      0.00000000
      7.50500000	    -24.70153163	      5.57880292	     -5.43506409	      0.46860423	      1.18291562	     -0.22734790	      0.00000000	      0.50000000	      0.00000000	      0.25000000	     53.62984027	     -2.78875960	     10.22670209	     57.18116530	      0.99799960	      9.42998401	     -8.90932793	      0.00000000	      0.00000000	     38.20071344	      0.06418577	      0.29864909	     61.22467384	      1.06857214	    -30.36322726	     -7.17785194	      0.00000000	      0.00000000	    -58.79236385	     -8.50226079	      7.12487356	     36.51010953	    -46.36570839	     32.05633731	     94.63190884	     58.66627911	      0.00000000	      0.00000000	     50.61948568	    -15.60439641	     34.28721794	     70.85295392	     52.04708510	      0.00000000	      0.00000000
      7.51000000	    -24.40086799	      6.21160784	     -5.13813289	      0.46851285	      1.18275467	     -0.22713477	      0.00000000	      0.50000000	      0.00000000	      0.25000000	     51.97992108	     -3.55785253	     10.58524172	     54.42576703	      0.94990883	      7.35587089	     -9.92010673	      0.00000000	      0.00000000	     39.12202269	      0.85644968	      0.23313745	     63.75165877	      1.11267635	    -29.30199305	     -7.67831232	      0.00000000	      0.00000000	    -59.02614123	     -8.95085147	      6.28714118	     36.07912053	    -45.38496010	     31.09692634	     94.02123011	     58.46343909	      0.00000000	      0.00000000	     50.91260610	    -15.43206690	     34.12775419	     70.41189494	     51.97166830	      0.00000000	      0.00000000
      7.51500000	    -24.33669076	      7.07889991	     -4.80860140	      0.46822649	      1.18186387	     -0.22699238	      0.00000000	      0.50000000	      0.00000000	      0.25000000	     50.62172539	     -4.50375617	     11.25338626	     51.78993787	      0.90390494	      6.06589820	     -9.67483993	      0.00000000	      0.00000000	     40.31034794	      1.85813530	      0.06002589	     66.21000968	      1.15558267	    -28.28351628	     -8.14533804	      0.00000000	      0.00000000	    -58.99684775	     -9.60845881	      5.31705374	     35.65935743	    -45.16489860	     30.81238053	     93.76758782	     58.39982993	      0.00000000	      0.00000000	     51.10406120	    -15.25378894	     34.15781642	     70.33979811	     51.96704064	      0.00000000	      0.00000000
      7.52000000	    -24.54963687	      7.62839730	     -4.39838923	      0.46761561	      1.18028054	     -0.22664282	      0.00000000	      0.50000000	      0.00000000	      0.25000000	     49.43441440	     -5.15798890	     11.69505081	     49.07748174	      0.85656364	      4.15840325	    -10.53930662	      0.00000000	      0.00000000	     41.90483783	      2.47061473	      0.04276848	     68.89780438	      1.20249353	    -26.85626267	     -8.16504228	      0.00000000	      0.00000000	    -58.59051518	    -10.18271152	      4.73631449	     34.05713851	    -43.71101814	     28.39497468	     93.01984035	     58.06673506	      0.00000000	      0.00000000	     51.34166338	    -15.01542403	     34.43058888	     70.01675115	     52.00628163	      0.00000000	      0.00000000
      7.52500000	    -24.52750751	      8.28344180	     -3.86813867	      0.46691915	      1.17890852	     -0.22670939	      0.00000000	      0.50000000	      0.00000000	      0.25000000	     48.02908781	     -6.09798501	     11.95289856	     46.50988399	      0.81175061	      2.58589294	    -10.72351591	      0.00000000	      0.00000000	     43.24661740	      3.39564868	      0.11243398	     71.45717533	      1.24716298	    -25.64791413	     -8.58249847	      0.00000000	      0.00000000	    -58.49567386	    -10.58660079	      3.79785260	     33.56213159	    -43.62756635	     28.09866423	     92.96493403	     58.04258164	      0.00000000	      0.00000000	     51.51733961	    -14.98505387	     34.56694673	     69.97645569	     52.02474245	      0.00000000	      0.00000000
      7.53000000	    -24.75676586	      8.57752034	     -3.16292268	      0.46597157	      1.17715082	     -0.22651733	      0.00000000	      0.50000000	      0.00000000	      0.25000000	     46.66349996	     -6.73718487	     11.96158144	     43.78865774	      0.76425625	      0.61319132	    -11.93745161	      0.00000000	      0.00000000	     44.93387790	      3.99747115	      0.59323345	     74.19160759	      1.29488783	    -23.87940242	     -8.06793324	      0.00000000	      0.00000000	    -58.10946690	    -10.68027068	      3.09048862	     32.85751769	    -42.96940910	     27.24309545	     92.72750047	     57.93817054	      0.00000000	      0.00000000	     51.67721934	    -15.23549899	     34.88316005	     70.06528038	     52.09957711	      0.00000000	      0.00000000
